<svg width="87" height="47" viewBox="0 0 87 47" xmlns="http://www.w3.org/2000/svg" xmlns:xlink="http://www.w3.org/1999/xlink"><title>Page 1</title><defs><path id="a" d="M0 .06h86.402V47H0"/></defs><g fill="none" fill-rule="evenodd"><path d="M58.256 13.237l18.758 22.7-44.687-7.76 25.93-14.94z" fill="#D8000F"/><g><mask id="b" fill="#fff"><use xlink:href="#a"/></mask><path d="M35.412 17.605l9.253-.164s-9.003-10.04 2.92-9.55c0 0 10.92.08 21.592 9.225l10.672-.082S71.93 5.52 54.67 1.03c0 0-13.842-3.92-19.344 4 0 0-4.002 5.145.084 12.575" fill="#0089CF" mask="url(#b)"/></g><path d="M63.984 26l2.314.004 1.65 2.048 2.59-.01 1.423 1.714-2.606.004 1.615 2.034h-2.346l-1.62-2.03-3.228.01-1.504-1.716 3.354-.007L63.984 26z" fill="#FFF"/><path d="M.002 24.743l2.658-.136c.037.83.184 1.39.44 1.68.41.472 1.174.708 2.284.708.924 0 1.592-.16 2.005-.48.41-.322.616-.71.616-1.163 0-.395-.167-.727-.504-1-.236-.2-.885-.524-1.946-.972-1.06-.447-1.836-.822-2.325-1.122-.486-.3-.87-.69-1.15-1.167-.28-.478-.42-1.037-.42-1.68 0-1.12.412-2.05 1.24-2.788.828-.738 2.025-1.108 3.594-1.108 1.59 0 2.825.363 3.698 1.087.874.727 1.354 1.693 1.44 2.898l-2.658.118c-.067-.63-.303-1.116-.707-1.455-.404-.335-1-.503-1.79-.503-.775 0-1.33.134-1.66.4-.333.266-.5.602-.5 1.008 0 .382.152.697.455.946.302.255.974.603 2.013 1.046 1.563.66 2.558 1.196 2.986 1.608.638.605.957 1.383.957 2.335 0 1.175-.476 2.178-1.424 3.012-.95.832-2.27 1.248-3.962 1.248-1.166 0-2.18-.19-3.034-.572-.856-.384-1.46-.916-1.812-1.596-.353-.68-.516-1.463-.492-2.35M22.102 23.076h-5.226l-1.273 5.94h-2.778l2.842-13.258h2.777L17.35 20.87h5.224l1.095-5.112h2.777l-2.84 13.258H20.83l1.272-5.94zM33.79 29.016h-2.977l-2.408-13.258h2.756L32.866 25.8l5.612-10.042h2.756L33.79 29.016zM37.74 46.755l2.84-13.258h9.415l-.47 2.204h-6.64l-.688 3.216h6.517l-.47 2.205h-6.52l-1.207 5.635H37.74zM50.252 42.482l2.657-.137c.036.83.183 1.39.44 1.68.41.474 1.173.708 2.283.708.924 0 1.593-.16 2.005-.48.41-.322.618-.71.618-1.163 0-.395-.168-.726-.505-1-.234-.2-.884-.524-1.945-.97-1.06-.45-1.834-.823-2.323-1.123-.49-.3-.873-.69-1.153-1.167-.282-.48-.422-1.038-.422-1.68 0-1.122.413-2.05 1.242-2.79.827-.738 2.025-1.107 3.594-1.107 1.59 0 2.825.362 3.698 1.088.875.727 1.355 1.692 1.44 2.898l-2.657.116c-.07-.63-.305-1.116-.708-1.453-.403-.336-1-.504-1.79-.504-.775 0-1.33.133-1.662.4-.332.266-.5.602-.5 1.01 0 .38.153.695.456.943.303.253.975.6 2.014 1.044 1.564.66 2.56 1.197 2.986 1.608.637.605.956 1.385.956 2.337 0 1.173-.475 2.178-1.424 3.01-.948.832-2.27 1.25-3.96 1.25-1.17 0-2.18-.192-3.037-.575-.856-.383-1.46-.913-1.812-1.594-.353-.68-.516-1.463-.49-2.348M69.83 46.755h-2.977l-2.408-13.258h2.757l1.704 10.043 5.612-10.043h2.756L69.83 46.755zM76.273 46.755l2.84-13.258h2.78l-2.37 11.053h6.878l-.467 2.205h-9.66z" fill="#0089CF"/></g></svg>